<svg width="36" height="36" viewBox="0 0 36 36" fill="none" xmlns="http://www.w3.org/2000/svg">
<path d="M20.1149 17.9998L29.5649 8.56479C29.8474 8.28233 30.006 7.89924 30.006 7.49979C30.006 7.10034 29.8474 6.71725 29.5649 6.43479C29.2825 6.15233 28.8994 5.99365 28.4999 5.99365C28.1005 5.99365 27.7174 6.15233 27.4349 6.43479L17.9999 15.8848L8.56491 6.43479C8.28245 6.15233 7.89936 5.99365 7.49991 5.99365C7.10046 5.99365 6.71736 6.15233 6.43491 6.43479C6.15245 6.71725 5.99377 7.10034 5.99377 7.49979C5.99377 7.89924 6.15245 8.28233 6.43491 8.56479L15.8849 17.9998L6.43491 27.4348C6.29432 27.5742 6.18272 27.7401 6.10657 27.9229C6.03042 28.1057 5.99121 28.3018 5.99121 28.4998C5.99121 28.6978 6.03042 28.8939 6.10657 29.0767C6.18272 29.2594 6.29432 29.4253 6.43491 29.5648C6.57435 29.7054 6.74025 29.817 6.92304 29.8931C7.10583 29.9693 7.30189 30.0085 7.49991 30.0085C7.69793 30.0085 7.89398 29.9693 8.07677 29.8931C8.25956 29.817 8.42546 29.7054 8.56491 29.5648L17.9999 20.1148L27.4349 29.5648C27.5744 29.7054 27.7403 29.817 27.923 29.8931C28.1058 29.9693 28.3019 30.0085 28.4999 30.0085C28.6979 30.0085 28.894 29.9693 29.0768 29.8931C29.2596 29.817 29.4255 29.7054 29.5649 29.5648C29.7055 29.4253 29.8171 29.2594 29.8932 29.0767C29.9694 28.8939 30.0086 28.6978 30.0086 28.4998C30.0086 28.3018 29.9694 28.1057 29.8932 27.9229C29.8171 27.7401 29.7055 27.5742 29.5649 27.4348L20.1149 17.9998Z" fill="#606060"/>
</svg>
