<svg width="38" height="38" viewBox="0 0 38 38" fill="none" xmlns="http://www.w3.org/2000/svg">
<path d="M28.5 3.16699H9.5C8.24022 3.16699 7.03204 3.66744 6.14124 4.55824C5.25045 5.44903 4.75 6.65721 4.75 7.91699V25.3337C4.75 26.5934 5.25045 27.8016 6.14124 28.6924C7.03204 29.5832 8.24022 30.0837 9.5 30.0837H13.6008L17.8758 34.3745C18.0238 34.5212 18.1992 34.6373 18.3921 34.7161C18.5851 34.7949 18.7916 34.8349 19 34.8337C19.3774 34.8337 19.7424 34.6989 20.0292 34.4537L25.1275 30.0837H28.5C29.7598 30.0837 30.968 29.5832 31.8588 28.6924C32.7496 27.8016 33.25 26.5934 33.25 25.3337V7.91699C33.25 6.65721 32.7496 5.44903 31.8588 4.55824C30.968 3.66744 29.7598 3.16699 28.5 3.16699ZM30.0833 25.3337C30.0833 25.7536 29.9165 26.1563 29.6196 26.4532C29.3227 26.7502 28.9199 26.917 28.5 26.917H24.5417C24.1643 26.917 23.7993 27.0517 23.5125 27.297L19.0792 31.097L15.3742 27.3762C15.2262 27.2294 15.0508 27.1133 14.8579 27.0345C14.6649 26.9557 14.4584 26.9158 14.25 26.917H9.5C9.08007 26.917 8.67735 26.7502 8.38041 26.4532C8.08348 26.1563 7.91667 25.7536 7.91667 25.3337V7.91699C7.91667 7.49707 8.08348 7.09434 8.38041 6.79741C8.67735 6.50047 9.08007 6.33366 9.5 6.33366H28.5C28.9199 6.33366 29.3227 6.50047 29.6196 6.79741C29.9165 7.09434 30.0833 7.49707 30.0833 7.91699V25.3337Z" fill="#BABABA"/>
</svg>
