<svg width="47" height="48" viewBox="0 0 47 48" fill="none" xmlns="http://www.w3.org/2000/svg">
<path d="M35.2085 4.7998H11.7362C10.1799 4.7998 8.68736 5.41805 7.58688 6.51852C6.48641 7.619 5.86816 9.11156 5.86816 10.6679V32.1841C5.86816 33.7404 6.48641 35.233 7.58688 36.3335C8.68736 37.4339 10.1799 38.0522 11.7362 38.0522H16.8023L22.0836 43.353C22.2664 43.5343 22.4831 43.6777 22.7214 43.7751C22.9597 43.8724 23.2149 43.9217 23.4724 43.9202C23.9386 43.9203 24.3895 43.7538 24.7438 43.4508L31.0422 38.0522H35.2085C36.7648 38.0522 38.2574 37.4339 39.3578 36.3335C40.4583 35.233 41.0766 33.7404 41.0766 32.1841V10.6679C41.0766 9.11156 40.4583 7.619 39.3578 6.51852C38.2574 5.41805 36.7648 4.7998 35.2085 4.7998ZM37.1645 32.1841C37.1645 32.7029 36.9584 33.2004 36.5916 33.5672C36.2248 33.9341 35.7273 34.1401 35.2085 34.1401H30.3184C29.8522 34.1401 29.4013 34.3066 29.047 34.6096L23.5702 39.304L18.9931 34.7074C18.8103 34.5261 18.5935 34.3827 18.3552 34.2853C18.1169 34.188 17.8617 34.1386 17.6043 34.1401H11.7362C11.2175 34.1401 10.7199 33.9341 10.3531 33.5672C9.98629 33.2004 9.78021 32.7029 9.78021 32.1841V10.6679C9.78021 10.1491 9.98629 9.65158 10.3531 9.28475C10.7199 8.91793 11.2175 8.71185 11.7362 8.71185H35.2085C35.7273 8.71185 36.2248 8.91793 36.5916 9.28475C36.9584 9.65158 37.1645 10.1491 37.1645 10.6679V32.1841Z" fill="#707070"/>
</svg>
