<svg width="47" height="48" viewBox="0 0 47 48" fill="none" xmlns="http://www.w3.org/2000/svg">
<path d="M35.2084 4.7998H11.7361C10.1798 4.7998 8.68727 5.41805 7.58679 6.51852C6.48631 7.619 5.86807 9.11156 5.86807 10.6679V32.1841C5.86807 33.7404 6.48631 35.233 7.58679 36.3335C8.68727 37.4339 10.1798 38.0522 11.7361 38.0522H16.8022L22.0835 43.353C22.2663 43.5343 22.483 43.6777 22.7213 43.7751C22.9597 43.8724 23.2148 43.9217 23.4723 43.9202C23.9385 43.9203 24.3894 43.7538 24.7437 43.4508L31.0421 38.0522H35.2084C36.7647 38.0522 38.2573 37.4339 39.3578 36.3335C40.4582 35.233 41.0765 33.7404 41.0765 32.1841V10.6679C41.0765 9.11156 40.4582 7.619 39.3578 6.51852C38.2573 5.41805 36.7647 4.7998 35.2084 4.7998ZM37.1644 32.1841C37.1644 32.7029 36.9583 33.2004 36.5915 33.5672C36.2247 33.9341 35.7272 34.1401 35.2084 34.1401H30.3183C29.8521 34.1401 29.4013 34.3066 29.0469 34.6096L23.5701 39.304L18.993 34.7074C18.8102 34.5261 18.5935 34.3827 18.3551 34.2853C18.1168 34.188 17.8616 34.1386 17.6042 34.1401H11.7361C11.2174 34.1401 10.7198 33.9341 10.353 33.5672C9.9862 33.2004 9.78012 32.7029 9.78012 32.1841V10.6679C9.78012 10.1491 9.9862 9.65158 10.353 9.28475C10.7198 8.91793 11.2174 8.71185 11.7361 8.71185H35.2084C35.7272 8.71185 36.2247 8.91793 36.5915 9.28475C36.9583 9.65158 37.1644 10.1491 37.1644 10.6679V32.1841Z" fill="#BABABA"/>
</svg>
