<svg width="86" height="86" viewBox="0 0 86 86" fill="none" xmlns="http://www.w3.org/2000/svg">
<path d="M63.4608 40.4558C63.1277 40.12 62.7314 39.8534 62.2947 39.6715C61.8581 39.4896 61.3897 39.3959 60.9167 39.3959C60.4436 39.3959 59.9753 39.4896 59.5386 39.6715C59.102 39.8534 58.7056 40.12 58.3725 40.4558L46.5833 52.2808V25.0833C46.5833 24.133 46.2058 23.2215 45.5338 22.5495C44.8618 21.8775 43.9504 21.5 43 21.5C42.0497 21.5 41.1382 21.8775 40.4662 22.5495C39.7942 23.2215 39.4167 24.133 39.4167 25.0833V52.2808L27.6275 40.4558C26.9528 39.7811 26.0376 39.402 25.0833 39.402C24.1291 39.402 23.2139 39.7811 22.5392 40.4558C21.8644 41.1306 21.4854 42.0458 21.4854 43C21.4854 43.9542 21.8644 44.8694 22.5392 45.5442L40.4558 63.4608C40.7966 63.7871 41.1985 64.0428 41.6383 64.2133C42.0673 64.4029 42.5311 64.5008 43 64.5008C43.469 64.5008 43.9328 64.4029 44.3617 64.2133C44.8015 64.0428 45.2034 63.7871 45.5442 63.4608L63.4608 45.5442C63.7967 45.211 64.0633 44.8147 64.2452 44.3781C64.4271 43.9414 64.5208 43.473 64.5208 43C64.5208 42.527 64.4271 42.0586 64.2452 41.6219C64.0633 41.1853 63.7967 40.789 63.4608 40.4558Z" fill="#303030"/>
</svg>
