<svg width="38" height="38" viewBox="0 0 38 38" fill="none" xmlns="http://www.w3.org/2000/svg">
<path d="M29.8145 14.9463C29.6693 14.7315 29.4735 14.5556 29.2443 14.4341C29.0152 14.3126 28.7597 14.2493 28.5003 14.2497H23.7503V11.083H27.2337C27.6536 11.083 28.0563 10.9162 28.3532 10.6193C28.6502 10.3223 28.817 9.9196 28.817 9.49968V3.16634C28.817 2.74642 28.6502 2.34369 28.3532 2.04676C28.0563 1.74982 27.6536 1.58301 27.2337 1.58301H22.167C19.7314 1.58301 17.3956 2.55054 15.6734 4.27274C13.9512 5.99495 12.9837 8.33077 12.9837 10.7663V14.2497H9.50033C9.0804 14.2497 8.67767 14.4165 8.38074 14.7134C8.08381 15.0104 7.91699 15.4131 7.91699 15.833V22.1663C7.91699 22.5863 8.08381 22.989 8.38074 23.2859C8.67767 23.5829 9.0804 23.7497 9.50033 23.7497H12.9837V34.833C12.9837 35.2529 13.1505 35.6557 13.4474 35.9526C13.7443 36.2495 14.1471 36.4163 14.567 36.4163H22.167C22.5869 36.4163 22.9896 36.2495 23.2866 35.9526C23.5835 35.6557 23.7503 35.2529 23.7503 34.833V23.7497H25.967C26.2841 23.75 26.594 23.6551 26.8565 23.4772C27.1191 23.2994 27.3222 23.0468 27.4395 22.7522L29.9728 16.4188C30.0685 16.1791 30.104 15.9196 30.0764 15.6629C30.0488 15.4063 29.9589 15.1603 29.8145 14.9463V14.9463ZM24.8903 20.583H22.167C21.7471 20.583 21.3443 20.7498 21.0474 21.0468C20.7505 21.3437 20.5837 21.7464 20.5837 22.1663V33.2497H16.1503V22.1663C16.1503 21.7464 15.9835 21.3437 15.6866 21.0468C15.3896 20.7498 14.9869 20.583 14.567 20.583H11.0837V17.4163H14.567C14.9869 17.4163 15.3896 17.2495 15.6866 16.9526C15.9835 16.6557 16.1503 16.2529 16.1503 15.833V10.7663C16.1545 9.17191 16.7897 7.64397 17.9172 6.51653C19.0446 5.38909 20.5726 4.75385 22.167 4.74967H25.6503V7.91634H24.3837C23.8476 7.83824 23.3012 7.87102 22.7782 8.01264C22.2553 8.15426 21.7671 8.40171 21.3437 8.73968C21.0867 9.00868 20.8869 9.32693 20.7563 9.67525C20.6257 10.0236 20.5669 10.3947 20.5837 10.7663V15.833C20.5837 16.2529 20.7505 16.6557 21.0474 16.9526C21.3443 17.2495 21.7471 17.4163 22.167 17.4163H26.157L24.8903 20.583Z" fill="#707070"/>
</svg>
