<svg width="38" height="38" viewBox="0 0 38 38" fill="none" xmlns="http://www.w3.org/2000/svg">
<path d="M29.8141 14.9463C29.6689 14.7315 29.4731 14.5556 29.2439 14.4341C29.0148 14.3126 28.7593 14.2493 28.5 14.2497H23.75V11.083H27.2333C27.6532 11.083 28.0559 10.9162 28.3529 10.6193C28.6498 10.3223 28.8166 9.9196 28.8166 9.49968V3.16634C28.8166 2.74642 28.6498 2.34369 28.3529 2.04676C28.0559 1.74982 27.6532 1.58301 27.2333 1.58301H22.1666C19.7311 1.58301 17.3952 2.55054 15.673 4.27274C13.9508 5.99495 12.9833 8.33077 12.9833 10.7663V14.2497H9.49996C9.08003 14.2497 8.67731 14.4165 8.38037 14.7134C8.08344 15.0104 7.91663 15.4131 7.91663 15.833V22.1663C7.91663 22.5863 8.08344 22.989 8.38037 23.2859C8.67731 23.5829 9.08003 23.7497 9.49996 23.7497H12.9833V34.833C12.9833 35.2529 13.1501 35.6557 13.447 35.9526C13.744 36.2495 14.1467 36.4163 14.5666 36.4163H22.1666C22.5866 36.4163 22.9893 36.2495 23.2862 35.9526C23.5831 35.6557 23.75 35.2529 23.75 34.833V23.7497H25.9666C26.2837 23.75 26.5936 23.6551 26.8562 23.4772C27.1187 23.2994 27.3218 23.0468 27.4391 22.7522L29.9725 16.4188C30.0681 16.1791 30.1037 15.9196 30.0761 15.6629C30.0485 15.4063 29.9585 15.1603 29.8141 14.9463V14.9463ZM24.89 20.583H22.1666C21.7467 20.583 21.344 20.7498 21.047 21.0468C20.7501 21.3437 20.5833 21.7464 20.5833 22.1663V33.2497H16.15V22.1663C16.15 21.7464 15.9831 21.3437 15.6862 21.0468C15.3893 20.7498 14.9866 20.583 14.5666 20.583H11.0833V17.4163H14.5666C14.9866 17.4163 15.3893 17.2495 15.6862 16.9526C15.9831 16.6557 16.15 16.2529 16.15 15.833V10.7663C16.1541 9.17191 16.7894 7.64397 17.9168 6.51653C19.0443 5.38909 20.5722 4.75385 22.1666 4.74967H25.65V7.91634H24.3833C23.8472 7.83824 23.3008 7.87102 22.7779 8.01264C22.255 8.15426 21.7667 8.40171 21.3433 8.73968C21.0863 9.00868 20.8865 9.32693 20.7559 9.67525C20.6253 10.0236 20.5666 10.3947 20.5833 10.7663V15.833C20.5833 16.2529 20.7501 16.6557 21.047 16.9526C21.344 17.2495 21.7467 17.4163 22.1666 17.4163H26.1566L24.89 20.583Z" fill="#BABABA"/>
</svg>
