<svg width="24" height="24" viewBox="0 0 24 24" fill="none" xmlns="http://www.w3.org/2000/svg">
<path d="M17.0001 8.61008L16.0001 2.84008C15.9618 2.60346 15.8397 2.38848 15.6562 2.2343C15.4727 2.08012 15.2398 1.997 15.0001 2.00008H9.00014C8.76045 1.997 8.52762 2.08012 8.34408 2.2343C8.16053 2.38848 8.03847 2.60346 8.00014 2.84008L7.00014 8.61008C6.31651 9.60842 5.95068 10.7901 5.95068 12.0001C5.95068 13.2101 6.31651 14.3917 7.00014 15.3901L8.00014 21.1601C8.03847 21.3967 8.16053 21.6117 8.34408 21.7659C8.52762 21.92 8.76045 22.0032 9.00014 22.0001H15.0001C15.2398 22.0032 15.4727 21.92 15.6562 21.7659C15.8397 21.6117 15.9618 21.3967 16.0001 21.1601L17.0001 15.3901C17.6838 14.3917 18.0496 13.2101 18.0496 12.0001C18.0496 10.7901 17.6838 9.60842 17.0001 8.61008ZM9.85014 4.00008H14.1501L14.5901 6.59008C13.7816 6.20314 12.8965 6.00228 12.0001 6.00228C11.1037 6.00228 10.2187 6.20314 9.41014 6.59008L9.85014 4.00008ZM14.1501 20.0001H9.85014L9.41014 17.4101C10.2187 17.797 11.1037 17.9979 12.0001 17.9979C12.8965 17.9979 13.7816 17.797 14.5901 17.4101L14.1501 20.0001ZM12.0001 16.0001C11.209 16.0001 10.4357 15.7655 9.77786 15.326C9.12006 14.8864 8.60737 14.2617 8.30462 13.5308C8.00187 12.7999 7.92266 11.9956 8.077 11.2197C8.23134 10.4438 8.6123 9.73107 9.17171 9.17166C9.73112 8.61225 10.4439 8.23128 11.2198 8.07694C11.9957 7.9226 12.8 8.00181 13.5309 8.30456C14.2618 8.60732 14.8865 9.12001 15.326 9.7778C15.7655 10.4356 16.0001 11.209 16.0001 12.0001C16.0001 13.0609 15.5787 14.0784 14.8286 14.8285C14.0784 15.5787 13.061 16.0001 12.0001 16.0001Z" fill="#606060"/>
</svg>
