<svg width="47" height="48" viewBox="0 0 47 48" fill="none" xmlns="http://www.w3.org/2000/svg">
<path d="M33.9174 11.3279C33.4532 11.3279 32.9994 11.4656 32.6134 11.7235C32.2274 11.9814 31.9265 12.348 31.7489 12.7769C31.5712 13.2058 31.5247 13.6777 31.6153 14.133C31.7059 14.5884 31.9294 15.0066 32.2577 15.3349C32.586 15.6631 33.0042 15.8867 33.4595 15.9772C33.9148 16.0678 34.3868 16.0213 34.8157 15.8437C35.2446 15.666 35.6112 15.3652 35.8691 14.9792C36.127 14.5932 36.2647 14.1394 36.2647 13.6751C36.2647 13.0526 36.0174 12.4556 35.5772 12.0154C35.137 11.5752 34.5399 11.3279 33.9174 11.3279V11.3279ZM42.9151 16.0615C42.8771 14.4386 42.5731 12.8329 42.0154 11.3083C41.518 10.0039 40.7439 8.82278 39.7464 7.84618C38.7778 6.84357 37.5939 6.07436 36.2842 5.59675C34.7637 5.02199 33.1562 4.71108 31.5311 4.67742C29.4577 4.56006 28.7926 4.56006 23.4723 4.56006C18.1519 4.56006 17.4868 4.56006 15.4135 4.67742C13.7883 4.71108 12.1808 5.02199 10.6603 5.59675C9.35307 6.0792 8.17018 6.84774 7.19817 7.84618C6.19556 8.81475 5.42635 9.99866 4.94874 11.3083C4.37398 12.8288 4.06307 14.4363 4.02941 16.0615C3.91205 18.1349 3.91205 18.7999 3.91205 24.1203C3.91205 29.4407 3.91205 30.1057 4.02941 32.1791C4.06307 33.8042 4.37398 35.4117 4.94874 36.9322C5.42635 38.2419 6.19556 39.4258 7.19817 40.3944C8.17018 41.3928 9.35307 42.1614 10.6603 42.6438C12.1808 43.2186 13.7883 43.5295 15.4135 43.5631C17.4868 43.6805 18.1519 43.6805 23.4723 43.6805C28.7926 43.6805 29.4577 43.6805 31.5311 43.5631C33.1562 43.5295 34.7637 43.2186 36.2842 42.6438C37.5939 42.1662 38.7778 41.397 39.7464 40.3944C40.7483 39.4214 41.5231 38.2392 42.0154 36.9322C42.5731 35.4077 42.8771 33.802 42.9151 32.1791C42.9151 30.1057 43.0325 29.4407 43.0325 24.1203C43.0325 18.7999 43.0325 18.1349 42.9151 16.0615V16.0615ZM39.3943 31.9444C39.38 33.186 39.1552 34.4162 38.7292 35.5826C38.4169 36.4338 37.9153 37.203 37.2622 37.832C36.6278 38.4785 35.8602 38.9791 35.0128 39.299C33.8464 39.7249 32.6162 39.9498 31.3746 39.9641C29.4186 40.0619 28.6948 40.0814 23.5505 40.0814C18.4062 40.0814 17.6824 40.0814 15.7264 39.9641C14.4372 39.9882 13.1535 39.7897 11.9317 39.3772C11.1215 39.041 10.3891 38.5416 9.78011 37.9102C9.13089 37.2819 8.63553 36.512 8.33266 35.6608C7.85511 34.4777 7.59024 33.2196 7.55025 31.9444C7.55025 29.9883 7.43289 29.2646 7.43289 24.1203C7.43289 18.9759 7.43289 18.2522 7.55025 16.2962C7.55902 15.0268 7.79074 13.7689 8.23486 12.5797C8.57921 11.7541 9.10776 11.0182 9.78011 10.4281C10.3744 9.75558 11.1088 9.22145 11.9317 8.86331C13.124 8.43307 14.3807 8.2082 15.6482 8.19826C17.6042 8.19826 18.3279 8.0809 23.4723 8.0809C28.6166 8.0809 29.3403 8.0809 31.2964 8.19826C32.538 8.2125 33.7682 8.43738 34.9346 8.86331C35.8234 9.19319 36.6212 9.72952 37.2622 10.4281C37.9032 11.029 38.4041 11.7636 38.7292 12.5797C39.164 13.7708 39.389 15.0283 39.3943 16.2962C39.4921 18.2522 39.5116 18.9759 39.5116 24.1203C39.5116 29.2646 39.4921 29.9883 39.3943 31.9444ZM23.4723 14.0859C21.4885 14.0898 19.5504 14.6815 17.9028 15.7865C16.2552 16.8914 14.9721 18.4599 14.2157 20.2938C13.4592 22.1277 13.2632 24.1447 13.6526 26.0899C14.042 28.035 14.9992 29.8212 16.4034 31.2226C17.8075 32.6239 19.5955 33.5777 21.5414 33.9633C23.4873 34.3489 25.5039 34.149 27.3363 33.389C29.1687 32.6289 30.7347 31.3428 31.8365 29.693C32.9382 28.0433 33.5262 26.1041 33.5262 24.1203C33.5288 22.8002 33.2704 21.4926 32.7658 20.2727C32.2612 19.0528 31.5204 17.9447 30.5861 17.0122C29.6517 16.0796 28.5422 15.341 27.3213 14.8388C26.1005 14.3366 24.7924 14.0807 23.4723 14.0859V14.0859ZM23.4723 30.6338C22.184 30.6338 20.9247 30.2518 19.8535 29.5361C18.7824 28.8204 17.9475 27.8031 17.4545 26.6129C16.9615 25.4227 16.8325 24.1131 17.0839 22.8495C17.3352 21.586 17.9556 20.4254 18.8665 19.5145C19.7774 18.6036 20.938 17.9832 22.2015 17.7319C23.465 17.4806 24.7747 17.6095 25.9649 18.1025C27.1551 18.5955 28.1724 19.4304 28.8881 20.5015C29.6038 21.5727 29.9858 22.832 29.9858 24.1203C29.9858 24.9756 29.8173 25.8226 29.49 26.6129C29.1627 27.4032 28.6829 28.1212 28.078 28.7261C27.4732 29.3309 26.7552 29.8107 25.9649 30.138C25.1746 30.4654 24.3276 30.6338 23.4723 30.6338V30.6338Z" fill="#BABABA"/>
</svg>
