<svg width="38" height="38" viewBox="0 0 38 38" fill="none" xmlns="http://www.w3.org/2000/svg">
<path d="M27.4551 8.64533C27.0793 8.64533 26.7119 8.75676 26.3995 8.96553C26.087 9.17431 25.8435 9.47105 25.6997 9.81823C25.5559 10.1654 25.5183 10.5474 25.5916 10.916C25.6649 11.2846 25.8459 11.6231 26.1116 11.8888C26.3773 12.1545 26.7158 12.3355 27.0844 12.4088C27.453 12.4821 27.835 12.4445 28.1822 12.3007C28.5294 12.1569 28.8261 11.9134 29.0349 11.6009C29.2436 11.2885 29.3551 10.9211 29.3551 10.5453C29.3551 10.0414 29.1549 9.55814 28.7986 9.20182C28.4423 8.8455 27.959 8.64533 27.4551 8.64533V8.64533ZM34.7384 12.477C34.7076 11.1633 34.4616 9.86355 34.0101 8.62949C33.6075 7.57362 32.9809 6.61752 32.1734 5.82699C31.3894 5.01542 30.431 4.39277 29.3709 4.00616C28.1401 3.54091 26.8389 3.28924 25.5234 3.26199C23.8451 3.16699 23.3067 3.16699 19.0001 3.16699C14.6934 3.16699 14.1551 3.16699 12.4767 3.26199C11.1612 3.28924 9.86004 3.54091 8.62925 4.00616C7.57107 4.39669 6.61356 5.0188 5.82675 5.82699C5.01517 6.61102 4.39253 7.56935 4.00591 8.62949C3.54067 9.86028 3.289 11.1615 3.26175 12.477C3.16675 14.1553 3.16675 14.6937 3.16675 19.0003C3.16675 23.307 3.16675 23.8453 3.26175 25.5237C3.289 26.8392 3.54067 28.1404 4.00591 29.3712C4.39253 30.4313 5.01517 31.3896 5.82675 32.1737C6.61356 32.9819 7.57107 33.604 8.62925 33.9945C9.86004 34.4597 11.1612 34.7114 12.4767 34.7387C14.1551 34.8337 14.6934 34.8337 19.0001 34.8337C23.3067 34.8337 23.8451 34.8337 25.5234 34.7387C26.8389 34.7114 28.1401 34.4597 29.3709 33.9945C30.431 33.6079 31.3894 32.9852 32.1734 32.1737C32.9845 31.3861 33.6116 30.4291 34.0101 29.3712C34.4616 28.1371 34.7076 26.8374 34.7384 25.5237C34.7384 23.8453 34.8334 23.307 34.8334 19.0003C34.8334 14.6937 34.8334 14.1553 34.7384 12.477V12.477ZM31.8884 25.3337C31.8769 26.3387 31.6949 27.3345 31.3501 28.2787C31.0973 28.9677 30.6912 29.5903 30.1626 30.0995C29.649 30.6228 29.0277 31.028 28.3417 31.287C27.3976 31.6318 26.4018 31.8138 25.3967 31.8253C23.8134 31.9045 23.2276 31.9203 19.0634 31.9203C14.8992 31.9203 14.3134 31.9203 12.7301 31.8253C11.6865 31.8449 10.6474 31.6842 9.65841 31.3503C9.00257 31.0781 8.40973 30.6739 7.91675 30.1628C7.39122 29.6542 6.99025 29.031 6.74508 28.342C6.35852 27.3843 6.14412 26.3659 6.11175 25.3337C6.11175 23.7503 6.01675 23.1645 6.01675 19.0003C6.01675 14.8362 6.01675 14.2503 6.11175 12.667C6.11884 11.6395 6.30642 10.6212 6.66591 9.65866C6.94466 8.99035 7.3725 8.39462 7.91675 7.91699C8.39779 7.37259 8.99229 6.94023 9.65841 6.65033C10.6235 6.30206 11.6407 6.12003 12.6667 6.11199C14.2501 6.11199 14.8359 6.01699 19.0001 6.01699C23.1642 6.01699 23.7501 6.01699 25.3334 6.11199C26.3385 6.12352 27.3343 6.30555 28.2784 6.65033C28.9979 6.91736 29.6437 7.3515 30.1626 7.91699C30.6814 8.40336 31.0869 8.99799 31.3501 9.65866C31.702 10.6228 31.8841 11.6406 31.8884 12.667C31.9676 14.2503 31.9834 14.8362 31.9834 19.0003C31.9834 23.1645 31.9676 23.7503 31.8884 25.3337ZM19.0001 10.8778C17.3943 10.881 15.8254 11.36 14.4918 12.2544C13.1581 13.1488 12.1195 14.4185 11.5072 15.9029C10.8948 17.3874 10.7362 19.0201 11.0514 20.5946C11.3666 22.1692 12.1415 23.615 13.278 24.7494C14.4146 25.8837 15.8619 26.6558 17.4371 26.9679C19.0123 27.28 20.6446 27.1182 22.1279 26.503C23.6112 25.8878 24.8788 24.8467 25.7706 23.5113C26.6624 22.1759 27.1384 20.6061 27.1384 19.0003C27.1405 17.9317 26.9313 16.8733 26.5229 15.8858C26.1144 14.8984 25.5148 14.0014 24.7585 13.2466C24.0021 12.4917 23.104 11.8938 22.1158 11.4873C21.1275 11.0808 20.0687 10.8736 19.0001 10.8778V10.8778ZM19.0001 24.2728C17.9573 24.2728 16.9379 23.9636 16.0708 23.3842C15.2038 22.8049 14.528 21.9814 14.1289 21.018C13.7299 20.0546 13.6254 18.9945 13.8289 17.9717C14.0323 16.9489 14.5345 16.0095 15.2719 15.2721C16.0092 14.5347 16.9487 14.0326 17.9715 13.8291C18.9942 13.6257 20.0544 13.7301 21.0178 14.1292C21.9812 14.5282 22.8047 15.204 23.384 16.0711C23.9634 16.9381 24.2726 17.9575 24.2726 19.0003C24.2726 19.6927 24.1362 20.3783 23.8712 21.018C23.6063 21.6577 23.2179 22.2389 22.7283 22.7285C22.2387 23.2181 21.6575 23.6065 21.0178 23.8715C20.3781 24.1364 19.6925 24.2728 19.0001 24.2728V24.2728Z" fill="#BABABA"/>
</svg>
