<svg width="47" height="48" viewBox="0 0 47 48" fill="none" xmlns="http://www.w3.org/2000/svg">
<path d="M21.5417 24.0232V34.0107C21.5417 34.5301 21.748 35.0282 22.1152 35.3954C22.4825 35.7627 22.9806 35.969 23.5 35.969C24.0194 35.969 24.5175 35.7627 24.8848 35.3954C25.252 35.0282 25.4583 34.5301 25.4583 34.0107V24.0232C27.8358 23.5379 29.9484 22.1871 31.3866 20.2327C32.8247 18.2782 33.486 15.8594 33.2421 13.4452C32.9982 11.031 31.8666 8.79329 30.0666 7.16599C28.2666 5.53869 25.9265 4.6377 23.5 4.6377C21.0735 4.6377 18.7334 5.53869 16.9334 7.16599C15.1334 8.79329 14.0018 11.031 13.7579 13.4452C13.514 15.8594 14.1753 18.2782 15.6134 20.2327C17.0516 22.1871 19.1642 23.5379 21.5417 24.0232ZM23.5 8.55236C24.662 8.55236 25.7978 8.89693 26.764 9.54248C27.7301 10.188 28.4831 11.1056 28.9278 12.1791C29.3725 13.2526 29.4888 14.4339 29.2621 15.5735C29.0354 16.7132 28.4759 17.76 27.6543 18.5816C26.8326 19.4032 25.7858 19.9628 24.6462 20.1895C23.5065 20.4162 22.3253 20.2998 21.2517 19.8552C20.1782 19.4105 19.2607 18.6575 18.6151 17.6913C17.9696 16.7252 17.625 15.5893 17.625 14.4274C17.625 12.8692 18.244 11.3749 19.3457 10.2731C20.4475 9.17133 21.9419 8.55236 23.5 8.55236ZM31.7446 28.9582C31.4874 28.9042 31.2221 28.9014 30.9639 28.9499C30.7056 28.9984 30.4594 29.0973 30.2394 29.241C30.0193 29.3846 29.8298 29.5702 29.6814 29.7872C29.5331 30.0041 29.429 30.2481 29.375 30.5053C29.321 30.7624 29.3182 31.0277 29.3667 31.286C29.4152 31.5443 29.5141 31.7904 29.6578 32.0105C29.8014 32.2305 29.987 32.4201 30.204 32.5684C30.4209 32.7167 30.6649 32.8209 30.9221 32.8749C35.3675 33.7561 37.2083 35.3424 37.2083 35.969C37.2083 37.1049 32.4104 39.8857 23.5 39.8857C14.5896 39.8857 9.79167 37.1049 9.79167 35.969C9.79167 35.3424 11.6325 33.7561 16.0779 32.7965C16.3351 32.7425 16.5791 32.6384 16.796 32.4901C17.013 32.3418 17.1986 32.1522 17.3422 31.9321C17.4859 31.7121 17.5848 31.4659 17.6333 31.2077C17.6818 30.9494 17.679 30.6841 17.625 30.4269C17.571 30.1698 17.4669 29.9258 17.3186 29.7088C17.1702 29.4919 16.9807 29.3063 16.7606 29.1626C16.5406 29.019 16.2944 28.9201 16.0361 28.8716C15.7779 28.823 15.5126 28.8259 15.2554 28.8799C9.30208 30.2507 5.875 32.8161 5.875 35.969C5.875 41.1194 14.7463 43.8024 23.5 43.8024C32.2537 43.8024 41.125 41.1194 41.125 35.969C41.125 32.8161 37.6979 30.2507 31.7446 28.9582Z" fill="#BABABA"/>
</svg>
