<svg width="38" height="38" viewBox="0 0 38 38" fill="none" xmlns="http://www.w3.org/2000/svg">
<path d="M17.4167 18.8414V26.9164C17.4167 27.3363 17.5835 27.739 17.8804 28.0359C18.1773 28.3329 18.5801 28.4997 19 28.4997C19.4199 28.4997 19.8227 28.3329 20.1196 28.0359C20.4165 27.739 20.5833 27.3363 20.5833 26.9164V18.8414C22.5056 18.449 24.2136 17.3568 25.3764 15.7767C26.5392 14.1965 27.0738 12.2409 26.8766 10.2889C26.6794 8.337 25.7645 6.52781 24.3092 5.21212C22.8539 3.89643 20.9619 3.16797 19 3.16797C17.0381 3.16797 15.1461 3.89643 13.6908 5.21212C12.2355 6.52781 11.3206 8.337 11.1234 10.2889C10.9262 12.2409 11.4608 14.1965 12.6236 15.7767C13.7864 17.3568 15.4944 18.449 17.4167 18.8414ZM19 6.33302C19.9395 6.33302 20.8578 6.6116 21.639 7.13354C22.4201 7.65548 23.0289 8.39732 23.3884 9.26527C23.7479 10.1332 23.842 11.0883 23.6587 12.0097C23.4755 12.9311 23.0231 13.7775 22.3588 14.4418C21.6945 15.1061 20.8481 15.5585 19.9267 15.7417C19.0053 15.925 18.0502 15.831 17.1823 15.4714C16.3143 15.1119 15.5725 14.5031 15.0505 13.722C14.5286 12.9408 14.25 12.0225 14.25 11.083C14.25 9.82324 14.7504 8.61506 15.6412 7.72426C16.532 6.83346 17.7402 6.33302 19 6.33302ZM25.6658 22.8314C25.4579 22.7877 25.2434 22.7854 25.0346 22.8246C24.8258 22.8639 24.6268 22.9438 24.4489 23.06C24.271 23.1761 24.1177 23.3262 23.9978 23.5016C23.8779 23.677 23.7937 23.8743 23.75 24.0822C23.7063 24.2901 23.7041 24.5046 23.7433 24.7134C23.7825 24.9222 23.8625 25.1213 23.9786 25.2992C24.0948 25.4771 24.2448 25.6303 24.4202 25.7503C24.5956 25.8702 24.7929 25.9544 25.0008 25.998C28.595 26.7105 30.0833 27.993 30.0833 28.4997C30.0833 29.418 26.2042 31.6664 19 31.6664C11.7958 31.6664 7.91667 29.418 7.91667 28.4997C7.91667 27.993 9.405 26.7105 12.9992 25.9347C13.2071 25.891 13.4044 25.8068 13.5798 25.6869C13.7552 25.567 13.9052 25.4137 14.0214 25.2358C14.1375 25.0579 14.2175 24.8589 14.2567 24.6501C14.2959 24.4413 14.2937 24.2268 14.25 24.0189C14.2063 23.8109 14.1221 23.6136 14.0022 23.4382C13.8823 23.2629 13.729 23.1128 13.5511 22.9967C13.3732 22.8805 13.1742 22.8005 12.9654 22.7613C12.7566 22.7221 12.5421 22.7244 12.3342 22.768C7.52083 23.8764 4.75 25.9505 4.75 28.4997C4.75 32.6639 11.9225 34.833 19 34.833C26.0775 34.833 33.25 32.6639 33.25 28.4997C33.25 25.9505 30.4792 23.8764 25.6658 22.8314Z" fill="#BABABA"/>
</svg>
