<svg width="38" height="38" viewBox="0 0 38 38" fill="none" xmlns="http://www.w3.org/2000/svg">
<path d="M30.0833 6.33301H7.91663C6.65685 6.33301 5.44867 6.83345 4.55787 7.72425C3.66707 8.61505 3.16663 9.82323 3.16663 11.083V26.9163C3.16663 28.1761 3.66707 29.3843 4.55787 30.2751C5.44867 31.1659 6.65685 31.6663 7.91663 31.6663H30.0833C31.3431 31.6663 32.5513 31.1659 33.442 30.2751C34.3328 29.3843 34.8333 28.1761 34.8333 26.9163V11.083C34.8333 9.82323 34.3328 8.61505 33.442 7.72425C32.5513 6.83345 31.3431 6.33301 30.0833 6.33301ZM29.4341 9.49967L20.1241 18.8097C19.9769 18.9581 19.8018 19.0759 19.6089 19.1563C19.4159 19.2366 19.209 19.278 19 19.278C18.7909 19.278 18.584 19.2366 18.391 19.1563C18.1981 19.0759 18.023 18.9581 17.8758 18.8097L8.56579 9.49967H29.4341ZM31.6666 26.9163C31.6666 27.3363 31.4998 27.739 31.2029 28.0359C30.9059 28.3329 30.5032 28.4997 30.0833 28.4997H7.91663C7.4967 28.4997 7.09397 28.3329 6.79704 28.0359C6.50011 27.739 6.33329 27.3363 6.33329 26.9163V11.7322L15.6433 21.0422C16.5339 21.9317 17.7412 22.4313 19 22.4313C20.2587 22.4313 21.466 21.9317 22.3566 21.0422L31.6666 11.7322V26.9163Z" fill="#BABABA"/>
</svg>
