<svg width="47" height="47" viewBox="0 0 47 47" fill="none" xmlns="http://www.w3.org/2000/svg">
<path d="M37.2087 7.8335H9.79199C8.23385 7.8335 6.73952 8.45247 5.63774 9.55424C4.53596 10.656 3.91699 12.1503 3.91699 13.7085V33.2918C3.91699 34.85 4.53596 36.3443 5.63774 37.4461C6.73952 38.5479 8.23385 39.1668 9.79199 39.1668H37.2087C38.7668 39.1668 40.2611 38.5479 41.3629 37.4461C42.4647 36.3443 43.0837 34.85 43.0837 33.2918V13.7085C43.0837 12.1503 42.4647 10.656 41.3629 9.55424C40.2611 8.45247 38.7668 7.8335 37.2087 7.8335ZM36.4057 11.7502L24.8907 23.2652C24.7087 23.4487 24.4921 23.5944 24.2535 23.6938C24.0148 23.7932 23.7588 23.8444 23.5003 23.8444C23.2418 23.8444 22.9858 23.7932 22.7472 23.6938C22.5086 23.5944 22.292 23.4487 22.1099 23.2652L10.5949 11.7502H36.4057ZM39.167 33.2918C39.167 33.8112 38.9607 34.3093 38.5934 34.6766C38.2262 35.0438 37.728 35.2502 37.2087 35.2502H9.79199C9.27261 35.2502 8.7745 35.0438 8.40724 34.6766C8.03998 34.3093 7.83366 33.8112 7.83366 33.2918V14.5114L19.3487 26.0264C20.4502 27.1266 21.9434 27.7446 23.5003 27.7446C25.0572 27.7446 26.5504 27.1266 27.652 26.0264L39.167 14.5114V33.2918Z" fill="#707070"/>
</svg>
