<svg width="86" height="86" viewBox="0 0 86 86" fill="none" xmlns="http://www.w3.org/2000/svg">
<path d="M38.5734 58.3755C37.5064 59.4312 36.9049 60.8561 36.8985 62.343C36.9 63.1027 37.0571 63.8545 37.3605 64.5534C37.8819 65.7545 38.8097 66.7421 39.9873 67.3494C41.1648 67.9567 42.5199 68.1464 43.8235 67.8866C45.1272 67.6267 46.2994 66.9331 47.1422 65.9231C47.985 64.9131 48.4467 63.6485 48.4493 62.343C48.4429 60.8561 47.8414 59.4312 46.7744 58.3755C46.2375 57.8442 45.5987 57.4226 44.895 57.1348C44.1912 56.8471 43.4363 56.6989 42.6739 56.6989C41.9115 56.6989 41.1566 56.8471 40.4528 57.1348C39.749 57.4226 39.1103 57.8442 38.5734 58.3755ZM42.6739 17C39.6306 16.9981 36.6405 17.7829 34.0045 19.2753C31.3685 20.7678 29.1795 22.9153 27.6579 25.5018C26.9674 26.7971 26.8137 28.3042 27.2287 29.7082C27.6437 31.1122 28.5955 32.3045 29.8851 33.0361C31.1748 33.7677 32.7026 33.9819 34.1494 33.6341C35.5962 33.2863 36.8502 32.4034 37.6493 31.1697C38.1557 30.3089 38.8839 29.5939 39.7608 29.0965C40.6376 28.5991 41.6324 28.3368 42.6452 28.3358C43.658 28.3348 44.6533 28.5952 45.5312 29.0909C46.409 29.5866 47.1386 30.3002 47.6468 31.16C48.1549 32.0198 48.4237 32.9956 48.4263 33.9896C48.4288 34.9835 48.1649 35.9607 47.6611 36.8229C47.1573 37.6852 46.4313 38.4023 45.556 38.9023C44.6806 39.4023 43.6867 39.6675 42.6739 39.6715C41.1422 39.6715 39.6732 40.2686 38.5901 41.3316C37.507 42.3945 36.8985 43.8361 36.8985 45.3394C36.8985 46.8426 37.507 48.2842 38.5901 49.3471C39.6732 50.4101 41.1422 51.0072 42.6739 51.0072C47.2691 51.0072 51.676 49.2158 54.9253 46.027C58.1746 42.8382 60 38.5133 60 34.0036C60 29.494 58.1746 25.169 54.9253 21.9802C51.676 18.7915 47.2691 17 42.6739 17Z" fill="#303030"/>
</svg>
