<svg width="86" height="86" viewBox="0 0 86 86" fill="none" xmlns="http://www.w3.org/2000/svg">
<path d="M39.9469 54.4398C39.1525 55.2407 38.7047 56.3217 38.6999 57.4498C38.701 58.0262 38.818 58.5965 39.0439 59.1268C39.4321 60.038 40.1229 60.7873 40.9996 61.248C41.8764 61.7087 42.8853 61.8527 43.8559 61.6555C44.8265 61.4584 45.6993 60.9322 46.3268 60.1659C46.9543 59.3996 47.298 58.4402 47.2999 57.4498C47.2952 56.3217 46.8473 55.2407 46.0529 54.4398C45.6532 54.0368 45.1776 53.7169 44.6536 53.4986C44.1296 53.2803 43.5676 53.1679 42.9999 53.1679C42.4323 53.1679 41.8702 53.2803 41.3462 53.4986C40.8222 53.7169 40.3467 54.0368 39.9469 54.4398ZM42.9999 23.0498C40.7341 23.0484 38.5079 23.6437 36.5452 24.776C34.5826 25.9083 32.9528 27.5375 31.8199 29.4998C31.3058 30.4825 31.1914 31.6259 31.5004 32.691C31.8094 33.7562 32.518 34.6607 33.4782 35.2158C34.4384 35.7708 35.5759 35.9334 36.6531 35.6695C37.7303 35.4056 38.6639 34.7358 39.2589 33.7998C39.636 33.1468 40.1781 32.6043 40.831 32.227C41.4839 31.8496 42.2245 31.6506 42.9786 31.6498C43.7326 31.6491 44.4737 31.8467 45.1273 32.2227C45.7809 32.5988 46.3241 33.1401 46.7024 33.7925C47.0808 34.4448 47.2809 35.1851 47.2828 35.9392C47.2847 36.6932 47.0882 37.4345 46.7131 38.0887C46.338 38.7429 45.7975 39.2869 45.1458 39.6662C44.494 40.0456 43.754 40.2468 42.9999 40.2498C41.8595 40.2498 40.7658 40.7028 39.9594 41.5092C39.153 42.3156 38.6999 43.4094 38.6999 44.5498C38.6999 45.6902 39.153 46.784 39.9594 47.5904C40.7658 48.3968 41.8595 48.8498 42.9999 48.8498C46.4212 48.8498 49.7024 47.4907 52.1216 45.0715C54.5408 42.6523 55.8999 39.3711 55.8999 35.9498C55.8999 32.5285 54.5408 29.2473 52.1216 26.8281C49.7024 24.4089 46.4212 23.0498 42.9999 23.0498Z" fill="#303030"/>
</svg>
