<svg width="47" height="48" viewBox="0 0 47 48" fill="none" xmlns="http://www.w3.org/2000/svg">
<path d="M33.9175 11.3279C33.4532 11.3279 32.9994 11.4656 32.6134 11.7235C32.2274 11.9814 31.9266 12.348 31.7489 12.7769C31.5713 13.2058 31.5248 13.6777 31.6154 14.133C31.7059 14.5884 31.9295 15.0066 32.2577 15.3349C32.586 15.6631 33.0042 15.8867 33.4596 15.9772C33.9149 16.0678 34.3868 16.0213 34.8157 15.8437C35.2446 15.666 35.6112 15.3652 35.8691 14.9792C36.127 14.5932 36.2647 14.1394 36.2647 13.6751C36.2647 13.0526 36.0174 12.4556 35.5772 12.0154C35.137 11.5752 34.54 11.3279 33.9175 11.3279ZM42.9152 16.0615C42.8771 14.4386 42.5732 12.8329 42.0154 11.3083C41.5181 10.0039 40.744 8.82277 39.7464 7.84618C38.7779 6.84357 37.5939 6.07436 36.2843 5.59675C34.7638 5.02199 33.1563 4.71108 31.5311 4.67742C29.4578 4.56006 28.7927 4.56006 23.4723 4.56006C18.1519 4.56006 17.4869 4.56006 15.4135 4.67742C13.7884 4.71108 12.1809 5.02199 10.6604 5.59675C9.35313 6.0792 8.17024 6.84774 7.19823 7.84618C6.19562 8.81475 5.42642 9.99866 4.9488 11.3083C4.37405 12.8288 4.06313 14.4363 4.02947 16.0615C3.91211 18.1349 3.91211 18.7999 3.91211 24.1203C3.91211 29.4407 3.91211 30.1057 4.02947 32.1791C4.06313 33.8042 4.37405 35.4117 4.9488 36.9322C5.42642 38.2419 6.19562 39.4258 7.19823 40.3944C8.17024 41.3928 9.35313 42.1614 10.6604 42.6438C12.1809 43.2186 13.7884 43.5295 15.4135 43.5631C17.4869 43.6805 18.1519 43.6805 23.4723 43.6805C28.7927 43.6805 29.4578 43.6805 31.5311 43.5631C33.1563 43.5295 34.7638 43.2186 36.2843 42.6438C37.5939 42.1662 38.7779 41.397 39.7464 40.3944C40.7484 39.4214 41.5232 38.2392 42.0154 36.9322C42.5732 35.4077 42.8771 33.802 42.9152 32.1791C42.9152 30.1057 43.0325 29.4407 43.0325 24.1203C43.0325 18.7999 43.0325 18.1349 42.9152 16.0615ZM39.3943 31.9444C39.3801 33.186 39.1552 34.4162 38.7293 35.5826C38.417 36.4338 37.9154 37.203 37.2623 37.832C36.6278 38.4785 35.8603 38.9791 35.0129 39.299C33.8465 39.7249 32.6163 39.9498 31.3747 39.9641C29.4186 40.0619 28.6949 40.0814 23.5506 40.0814C18.4062 40.0814 17.6825 40.0814 15.7265 39.9641C14.4372 39.9882 13.1535 39.7897 11.9318 39.3772C11.1216 39.041 10.3892 38.5416 9.78018 37.9102C9.13095 37.2819 8.6356 36.5121 8.33272 35.6608C7.85517 34.4777 7.5903 33.2196 7.55031 31.9444C7.55031 29.9883 7.43295 29.2646 7.43295 24.1203C7.43295 18.9759 7.43295 18.2522 7.55031 16.2962C7.55908 15.0268 7.7908 13.7689 8.23492 12.5797C8.57927 11.7541 9.10782 11.0182 9.78018 10.4281C10.3744 9.75558 11.1089 9.22145 11.9318 8.86331C13.1241 8.43307 14.3807 8.20819 15.6482 8.19826C17.6043 8.19826 18.328 8.0809 23.4723 8.0809C28.6167 8.0809 29.3404 8.0809 31.2964 8.19826C32.538 8.2125 33.7682 8.43738 34.9346 8.86331C35.8235 9.19319 36.6213 9.72952 37.2623 10.4281C37.9033 11.029 38.4041 11.7636 38.7293 12.5797C39.164 13.7708 39.389 15.0283 39.3943 16.2962C39.4921 18.2522 39.5117 18.9759 39.5117 24.1203C39.5117 29.2646 39.4921 29.9883 39.3943 31.9444ZM23.4723 14.0859C21.4886 14.0898 19.5504 14.6815 17.9029 15.7865C16.2553 16.8914 14.9722 18.4599 14.2157 20.2938C13.4592 22.1277 13.2633 24.1447 13.6527 26.0899C14.0421 28.035 14.9993 29.8212 16.4034 31.2226C17.8075 32.6239 19.5955 33.5777 21.5415 33.9633C23.4874 34.3489 25.504 34.149 27.3364 33.389C29.1688 32.6289 30.7348 31.3428 31.8365 29.693C32.9383 28.0433 33.5263 26.1041 33.5263 24.1203C33.5289 22.8002 33.2704 21.4926 32.7659 20.2727C32.2613 19.0528 31.5205 17.9447 30.5861 17.0122C29.6518 16.0796 28.5422 15.341 27.3214 14.8388C26.1005 14.3366 24.7924 14.0807 23.4723 14.0859ZM23.4723 30.6338C22.1841 30.6338 20.9247 30.2518 19.8536 29.5361C18.7824 28.8204 17.9476 27.8031 17.4546 26.6129C16.9616 25.4227 16.8326 24.1131 17.0839 22.8495C17.3353 21.586 17.9556 20.4254 18.8666 19.5145C19.7775 18.6036 20.9381 17.9832 22.2016 17.7319C23.4651 17.4806 24.7748 17.6095 25.965 18.1025C27.1552 18.5955 28.1724 19.4304 28.8882 20.5015C29.6039 21.5727 29.9859 22.832 29.9859 24.1203C29.9859 24.9756 29.8174 25.8226 29.4901 26.6129C29.1627 27.4032 28.6829 28.1212 28.0781 28.7261C27.4733 29.3309 26.7552 29.8107 25.965 30.138C25.1747 30.4654 24.3277 30.6338 23.4723 30.6338Z" fill="#707070"/>
</svg>
