<svg width="34" height="50" viewBox="0 0 34 50" fill="none" xmlns="http://www.w3.org/2000/svg">
<path d="M16.9999 10.4997C16.359 10.4997 15.7443 10.7543 15.2911 11.2075C14.8379 11.6607 14.5833 12.2754 14.5833 12.9163V17.7497C14.5833 18.3906 14.8379 19.0053 15.2911 19.4585C15.7443 19.9117 16.359 20.1663 16.9999 20.1663C17.6409 20.1663 18.2555 19.9117 18.7088 19.4585C19.162 19.0053 19.4166 18.3906 19.4166 17.7497V12.9163C19.4166 12.2754 19.162 11.6607 18.7088 11.2075C18.2555 10.7543 17.6409 10.4997 16.9999 10.4997ZM16.9999 0.833008C12.5133 0.833008 8.21052 2.61529 5.03803 5.78778C1.86554 8.96028 0.083252 13.2631 0.083252 17.7497V32.2497C0.083252 36.7363 1.86554 41.0391 5.03803 44.2116C8.21052 47.3841 12.5133 49.1663 16.9999 49.1663C21.4865 49.1663 25.7893 47.3841 28.9618 44.2116C32.1343 41.0391 33.9166 36.7363 33.9166 32.2497V17.7497C33.9166 13.2631 32.1343 8.96028 28.9618 5.78778C25.7893 2.61529 21.4865 0.833008 16.9999 0.833008V0.833008ZM29.0833 32.2497C29.0833 35.4544 27.8102 38.5278 25.5441 40.7939C23.2781 43.0599 20.2046 44.333 16.9999 44.333C13.7952 44.333 10.7218 43.0599 8.45571 40.7939C6.18965 38.5278 4.91659 35.4544 4.91659 32.2497V17.7497C4.91659 14.545 6.18965 11.4715 8.45571 9.20547C10.7218 6.9394 13.7952 5.66634 16.9999 5.66634C20.2046 5.66634 23.2781 6.9394 25.5441 9.20547C27.8102 11.4715 29.0833 14.545 29.0833 17.7497V32.2497Z" fill="#303030"/>
</svg>
